#!OML:ASF G:\JayActor3\Patient Classification 1\Patient 1\Session 5\male.ASF
:FULLY-SPECIFIED
:DEGREES
796
root 31.0661 16.4707 -3.91332 24.5594 -74.053 -34.3844
lowerback 6.70535 -0.990162 9.25715
upperback 3.71064 -0.896522 1.4528
thorax 0.00238973 -0.382644 -3.62068
lowerneck -1.23975 -0.280737 3.4041
upperneck 4.30713 -0.530158 0.828886
head 1.53393 -0.20682 -0.321915
rclavicle -1.86982e-015 -7.15625e-015
rhumerus -40.4348 -15.6303 -84.0093
rradius 22.9417
rwrist 8.82688
rhand -19.9217 -7.6487
rfingers 7.12502
rthumb 6.41542 -37.5315
lclavicle -1.86982e-015 -7.15625e-015
lhumerus -38.5135 16.9225 77.285
lradius 15.6036
lwrist 12.5487
lhand -20.0781 13.5008
lfingers 7.12502
lthumb 6.26437 43.3881
rfemur 20.349 -4.91079 39.109
rtibia 1.09174
rfoot -12.9779 -10.9444
rtoes 19.0628
lfemur -46.3351 4.14628 -16.105
ltibia 27.1328
lfoot -30.252 9.74791
ltoes -20.6596
797
root 31.0338 16.4622 -3.90268 24.6398 -74.0677 -34.4526
lowerback 6.63901 -0.983092 9.26959
upperback 3.7038 -0.893053 1.4465
thorax 0.0323701 -0.379345 -3.63518
lowerneck -1.23314 -0.289224 3.38605
upperneck 4.28154 -0.540442 0.838409
head 1.52446 -0.212397 -0.315966
rclavicle -4.36829e-014 1.39149e-014
rhumerus -40.4643 -15.5912 -84.0173
rradius 22.9135
rwrist 8.80073
rhand -19.9163 -7.64102
rfingers 7.12502
rthumb 6.4206 -37.5237
lclavicle -4.36829e-014 1.39149e-014
lhumerus -38.5261 16.898 77.257
lradius 15.6128
lwrist 12.5694
lhand -20.0886 13.4849
lfingers 7.12502
lthumb 6.2543 43.3726
rfemur 19.882 -4.92554 39.0962
rtibia 2.19085
rfoot -13.5659 -10.7625
rtoes 19.0078
lfemur -45.8163 4.16812 -16.1098
ltibia 26.9249
lfoot -30.4084 9.79412
ltoes -20.75
798
root 31.0006 16.4532 -3.89152 24.7559 -74.0751 -34.5544
lowerback 6.58023 -0.976407 9.29541
upperback 3.6849 -0.887481 1.44409
thorax 0.0457858 -0.375823 -3.65304
lowerneck -1.1996 -0.299062 3.37456
upperneck 4.24621 -0.551049 0.838783
head 1.50718 -0.218447 -0.313816
rclavicle -2.90909e-014 -1.78906e-014
rhumerus -40.5156 -15.5577 -84.011
rradius 22.8847
rwrist 8.80159
rhand -19.9069 -7.64247
rfingers 7.12502
rthumb 6.42971 -37.5249
lclavicle -2.90909e-014 -1.78906e-014
lhumerus -38.5518 16.881 77.2191
lradius 15.6146
lwrist 12.5693
lhand -20.1058 13.4665
lfingers 7.12502
lthumb 6.23768 43.3546
rfemur 19.6764 -4.94554 39.0955
rtibia 2.79694
rfoot -13.9254 -10.6346
rtoes 18.9251
lfemur -45.3246 4.17615 -16.1
ltibia 26.7395
lfoot -30.5341 9.89937
ltoes -20.8837
799
root 30.9665 16.4439 -3.8797 24.9277 -74.0654 -34.7015
lowerback 6.51074 -0.971927 9.3403
upperback 3.65692 -0.884325 1.44936
thorax 0.0553694 -0.373708 -3.6734
lowerneck -1.15348 -0.307775 3.36545
upperneck 4.2095 -0.559484 0.83372
head 1.4873 -0.223544 -0.313653
rclavicle -4.5969e-016 -2.78299e-015
rhumerus -40.5875 -15.5195 -83.9952
rradius 22.8741
rwrist 8.8189
rhand -19.8928 -7.65942
rfingers 7.12502
rthumb 6.44327 -37.5414
lclavicle -4.5969e-016 -2.78299e-015
lhumerus -38.5829 16.8879 77.1705
lradius 15.6063
lwrist 12.5375
lhand -20.13 13.4512
lfingers 7.12502
lthumb 6.2143 43.3401
rfemur 19.5725 -4.97219 39.112
rtibia 3.19259
rfoot -14.1868 -10.5234
rtoes 18.8271
lfemur -44.8787 4.19567 -16.0862
ltibia 26.5937
lfoot -30.6375 10.0158
ltoes -20.861
800
root 30.9313 16.4344 -3.86703 25.1845 -74.0301 -34.9197
lowerback 6.42038 -0.970905 9.41772
upperback 3.62159 -0.885962 1.46393
thorax 0.0682602 -0.373707 -3.70205
lowerneck -1.10506 -0.315542 3.35822
upperneck 4.17745 -0.56665 0.826122
head 1.46855 -0.227975 -0.314576
rclavicle -5.21189e-015 -2.50469e-014
rhumerus -40.6663 -15.4924 -83.9649
rradius 22.8591
rwrist 8.86065
rhand -19.8773 -7.69088
rfingers 7.12502
rthumb 6.45822 -37.5724
lclavicle -5.21189e-015 -2.50469e-014
lhumerus -38.6169 16.9006 77.1237
lradius 15.5978
lwrist 12.4941
lhand -20.1608 13.4478
lfingers 7.12502
lthumb 6.18455 43.3375
rfemur 19.5206 -5.00736 39.1548
rtibia 3.46077
rfoot -14.3869 -10.4178
rtoes 18.7076
lfemur -44.4899 4.25317 -16.0742
ltibia 26.4954
lfoot -30.7282 10.0762
ltoes -20.6372
801
root 30.8953 16.4246 -3.85352 25.5458 -73.9677 -35.2301
lowerback 6.30424 -0.971875 9.53687
upperback 3.58555 -0.891356 1.48762
thorax 0.09425 -0.374649 -3.74445
lowerneck -1.0668 -0.322461 3.35016
upperneck 4.1552 -0.573556 0.823888
head 1.45471 -0.232033 -0.31377
rclavicle 2.08103e-014 -2.26615e-014
rhumerus -40.7383 -15.4861 -83.9206
rradius 22.8327
rwrist 8.92377
rhand -19.8662 -7.7273
rfingers 7.12502
rthumb 6.46895 -37.6085
lclavicle 2.08103e-014 -2.26615e-014
lhumerus -38.6428 16.9222 77.0797
lradius 15.5889
lwrist 12.4366
lhand -20.1944 13.4559
lfingers 7.12502
lthumb 6.15211 43.3466
rfemur 19.4927 -5.04939 39.2306
rtibia 3.65342
rfoot -14.5477 -10.3128
rtoes 18.569
lfemur -44.1586 4.3669 -16.0666
ltibia 26.4402
lfoot -30.8157 10.0966
ltoes -20.2981
802
root 30.8586 16.4147 -3.83931 25.9538 -73.8854 -35.5818
lowerback 6.16512 -0.973387 9.68248
upperback 3.55777 -0.900066 1.51573
thorax 0.141263 -0.375889 -3.79707
lowerneck -1.05481 -0.330143 3.34513
upperneck 4.14867 -0.583009 0.822944
head 1.45042 -0.236976 -0.313285
rclavicle -1.635e-014 3.89618e-014
rhumerus -40.8027 -15.4954 -83.8723
rradius 22.8164
rwrist 8.98657
rhand -19.8559 -7.77602
rfingers 7.12502
rthumb 6.47889 -37.6569
lclavicle -1.635e-014 3.89618e-014
lhumerus -38.6493 16.9421 77.0473
lradius 15.582
lwrist 12.3804
lhand -20.222 13.4617
lfingers 7.12502
lthumb 6.12548 43.3531
rfemur 19.4725 -5.09984 39.3235
rtibia 3.81896
rfoot -14.6958 -10.2046
rtoes 18.4404
lfemur -43.8667 4.52754 -16.0725
ltibia 26.4136
lfoot -30.9035 10.0705
ltoes -19.9043
